<?xml version="1.0"?>
<svg xmlns="http://www.w3.org/2000/svg" xmlns:xlink="http://www.w3.org/1999/xlink" version="1.0" width="1559.7732" height="967.6882" viewBox="9.1995 -2.0000 102.4858 65.4805">
<g id="layer_1_TODO:layer_name">
<!--normal-->
 <line x1="65.5360" y1="5.1200" x2="65.5360" y2="9.2160" stroke-width="0.2560" stroke="#2222bb" stroke-linecap="round"/>
 <line x1="65.5360" y1="33.7920" x2="65.5360" y2="29.6960" stroke-width="0.2560" stroke="#2222bb" stroke-linecap="round"/>
 <line x1="65.5360" y1="54.2720" x2="65.5360" y2="50.1760" stroke-width="0.2560" stroke="#2222bb" stroke-linecap="round"/>
 <line x1="53.2480" y1="5.1200" x2="90.1120" y2="5.1200" stroke-width="0.2560" stroke="#2222bb" stroke-linecap="round"/>
 <line x1="90.1120" y1="5.1200" x2="90.1120" y2="9.2160" stroke-width="0.2560" stroke="#2222bb" stroke-linecap="round"/>
 <line x1="90.1120" y1="33.7920" x2="90.1120" y2="29.6960" stroke-width="0.2560" stroke="#2222bb" stroke-linecap="round"/>
 <line x1="16.3840" y1="17.4080" x2="16.3840" y2="9.2160" stroke-width="0.2560" stroke="#2222bb" stroke-linecap="round"/>
 <line x1="16.3840" y1="37.8880" x2="16.3840" y2="54.2720" stroke-width="0.2560" stroke="#2222bb" stroke-linecap="round"/>
 <line x1="16.3840" y1="9.2160" x2="32.7680" y2="9.2160" stroke-width="0.2560" stroke="#2222bb" stroke-linecap="round"/>
 <line x1="32.7680" y1="17.4080" x2="28.6720" y2="17.4080" stroke-width="0.2560" stroke="#2222bb" stroke-linecap="round"/>
 <line x1="16.3840" y1="54.2720" x2="90.1120" y2="54.2720" stroke-width="0.2560" stroke="#2222bb" stroke-linecap="round"/>
 <line x1="28.6720" y1="17.4080" x2="28.6720" y2="54.2720" stroke-width="0.2560" stroke="#2222bb" stroke-linecap="round"/>
 <line x1="90.1120" y1="54.2720" x2="90.1120" y2="50.1760" stroke-width="0.2560" stroke="#2222bb" stroke-linecap="round"/>
 <line x1="65.5360" y1="5.1200" x2="65.5360" y2="5.1200" stroke-width="1.0240" stroke="#2222bb" stroke-linecap="round"/>
 <line x1="65.5360" y1="54.2720" x2="65.5360" y2="54.2720" stroke-width="1.0240" stroke="#2222bb" stroke-linecap="round"/>
 <line x1="28.6720" y1="54.2720" x2="28.6720" y2="54.2720" stroke-width="1.0240" stroke="#2222bb" stroke-linecap="round"/>
 <line x1="18.4320" y1="28.6720" x2="14.3360" y2="28.6720" stroke-width="0.1280" stroke="#119911" stroke-linecap="round"/>
 <line x1="16.3840" y1="28.6720" x2="16.3840" y2="33.7920" stroke-width="0.1280" stroke="#119911" stroke-linecap="round"/>
 <line x1="65.5360" y1="46.0800" x2="65.5360" y2="44.0320" stroke-width="0.1280" stroke="#119911" stroke-linecap="round"/>
 <line x1="65.5360" y1="44.0320" x2="61.4400" y2="39.9360" stroke-width="0.1280" stroke="#119911" stroke-linecap="round"/>
 <line x1="65.5360" y1="37.8880" x2="65.5360" y2="39.9360" stroke-width="0.1280" stroke="#119911" stroke-linecap="round"/>
 <line x1="69.6320" y1="39.9360" x2="65.5360" y2="44.0320" stroke-width="0.1280" stroke="#119911" stroke-linecap="round"/>
 <line x1="75.1145" y1="43.7217" x2="73.6246" y2="43.1923" stroke-width="0.1280" stroke="#119911" stroke-linecap="round"/>
 <line x1="71.0185" y1="39.6257" x2="74.0905" y2="41.6737" stroke-width="0.1280" stroke="#119911" stroke-linecap="round"/>
 <line x1="74.0905" y1="41.6737" x2="72.0425" y2="41.6737" stroke-width="0.1280" stroke="#119911" stroke-linecap="round"/>
 <line x1="76.8000" y1="44.0320" x2="75.3101" y2="43.5026" stroke-width="0.1280" stroke="#119911" stroke-linecap="round"/>
 <line x1="72.0425" y1="41.6737" x2="75.1145" y2="43.7217" stroke-width="0.1280" stroke="#119911" stroke-linecap="round"/>
 <line x1="75.1145" y1="43.7217" x2="74.0905" y2="42.6977" stroke-width="0.1280" stroke="#119911" stroke-linecap="round"/>
 <line x1="73.7280" y1="41.9840" x2="76.8000" y2="44.0320" stroke-width="0.1280" stroke="#119911" stroke-linecap="round"/>
 <line x1="76.8000" y1="44.0320" x2="75.7760" y2="43.0080" stroke-width="0.1280" stroke="#119911" stroke-linecap="round"/>
 <line x1="72.7040" y1="39.9360" x2="75.7760" y2="41.9840" stroke-width="0.1280" stroke="#119911" stroke-linecap="round"/>
 <line x1="75.7760" y1="41.9840" x2="73.7280" y2="41.9840" stroke-width="0.1280" stroke="#119911" stroke-linecap="round"/>
 <line x1="90.1120" y1="46.0800" x2="90.1120" y2="44.0320" stroke-width="0.1280" stroke="#119911" stroke-linecap="round"/>
 <line x1="90.1120" y1="44.0320" x2="86.0160" y2="39.9360" stroke-width="0.1280" stroke="#119911" stroke-linecap="round"/>
 <line x1="78.8480" y1="41.0579" x2="78.8480" y2="39.2922" stroke-width="0.1861" stroke="#119911" stroke-linecap="round"/>
 <line x1="78.8480" y1="41.0579" x2="79.6097" y2="41.0579" stroke-width="0.1861" stroke="#119911" stroke-linecap="round"/>
 <line x1="80.2631" y1="41.0579" x2="80.2631" y2="39.2922" stroke-width="0.1861" stroke="#119911" stroke-linecap="round"/>
 <line x1="80.2631" y1="39.2922" x2="81.0247" y2="39.2922" stroke-width="0.1861" stroke="#119911" stroke-linecap="round"/>
 <line x1="81.0247" y1="41.0579" x2="80.2631" y2="41.0579" stroke-width="0.1861" stroke="#119911" stroke-linecap="round"/>
 <line x1="80.8516" y1="40.0885" x2="80.2631" y2="40.0885" stroke-width="0.1861" stroke="#119911" stroke-linecap="round"/>
 <line x1="81.6782" y1="39.2922" x2="82.3013" y2="39.2922" stroke-width="0.1861" stroke="#119911" stroke-linecap="round"/>
 <line x1="81.6782" y1="41.0579" x2="82.3013" y2="41.0579" stroke-width="0.1861" stroke="#119911" stroke-linecap="round"/>
 <line x1="82.6475" y1="39.6385" x2="82.6475" y2="40.7117" stroke-width="0.1861" stroke="#119911" stroke-linecap="round"/>
 <line x1="81.6782" y1="39.2922" x2="81.6782" y2="41.0579" stroke-width="0.1861" stroke="#119911" stroke-linecap="round"/>
 <path d="M 82.30134200 41.05789900 A 0.3462 0.3462 0 0 0 82.6475 40.7117" stroke-width="0.1861" stroke="#119911" stroke-linecap="round" fill="none"/>
 <path d="M 82.30134200 39.29224700 A 0.3462 0.3462 0 0 1 82.6475 39.6385" stroke-width="0.1861" stroke="#119911" stroke-linecap="round" fill="none"/>
 <line x1="83.1149" y1="39.6731" x2="83.4957" y2="39.2922" stroke-width="0.1861" stroke="#119911" stroke-linecap="round"/>
 <line x1="83.4957" y1="39.2922" x2="83.4957" y2="41.0579" stroke-width="0.1861" stroke="#119911" stroke-linecap="round"/>
 <line x1="69.6320" y1="39.9360" x2="61.4400" y2="39.9360" stroke-width="0.1280" stroke="#119911" stroke-linecap="round"/>
 <line x1="69.6320" y1="44.0320" x2="61.4400" y2="44.0320" stroke-width="0.1280" stroke="#119911" stroke-linecap="round"/>
 <line x1="90.1120" y1="37.8880" x2="90.1120" y2="39.9360" stroke-width="0.1280" stroke="#119911" stroke-linecap="round"/>
 <line x1="94.2080" y1="39.9360" x2="90.1120" y2="44.0320" stroke-width="0.1280" stroke="#119911" stroke-linecap="round"/>
 <line x1="94.2080" y1="39.9360" x2="86.0160" y2="39.9360" stroke-width="0.1280" stroke="#119911" stroke-linecap="round"/>
 <line x1="94.2080" y1="44.0320" x2="86.0160" y2="44.0320" stroke-width="0.1280" stroke="#119911" stroke-linecap="round"/>
 <line x1="103.4240" y1="41.0579" x2="103.4240" y2="39.2922" stroke-width="0.1861" stroke="#119911" stroke-linecap="round"/>
 <line x1="103.4240" y1="41.0579" x2="104.1857" y2="41.0579" stroke-width="0.1861" stroke="#119911" stroke-linecap="round"/>
 <line x1="104.8391" y1="41.0579" x2="104.8391" y2="39.2922" stroke-width="0.1861" stroke="#119911" stroke-linecap="round"/>
 <line x1="104.8391" y1="39.2922" x2="105.6007" y2="39.2922" stroke-width="0.1861" stroke="#119911" stroke-linecap="round"/>
 <line x1="105.6007" y1="41.0579" x2="104.8391" y2="41.0579" stroke-width="0.1861" stroke="#119911" stroke-linecap="round"/>
 <line x1="105.4276" y1="40.0885" x2="104.8391" y2="40.0885" stroke-width="0.1861" stroke="#119911" stroke-linecap="round"/>
 <line x1="106.2542" y1="39.2922" x2="106.8773" y2="39.2922" stroke-width="0.1861" stroke="#119911" stroke-linecap="round"/>
 <line x1="106.2542" y1="41.0579" x2="106.8773" y2="41.0579" stroke-width="0.1861" stroke="#119911" stroke-linecap="round"/>
 <line x1="107.2235" y1="39.6385" x2="107.2235" y2="40.7117" stroke-width="0.1861" stroke="#119911" stroke-linecap="round"/>
 <line x1="106.2542" y1="39.2922" x2="106.2542" y2="41.0579" stroke-width="0.1861" stroke="#119911" stroke-linecap="round"/>
 <path d="M 106.87734200 41.05789900 A 0.3462 0.3462 0 0 0 107.2235 40.7117" stroke-width="0.1861" stroke="#119911" stroke-linecap="round" fill="none"/>
 <path d="M 106.87734200 39.29224700 A 0.3462 0.3462 0 0 1 107.2235 39.6385" stroke-width="0.1861" stroke="#119911" stroke-linecap="round" fill="none"/>
 <line x1="107.7042" y1="41.0579" x2="108.4659" y2="41.0579" stroke-width="0.1861" stroke="#119911" stroke-linecap="round"/>
 <line x1="107.7042" y1="41.0579" x2="108.4413" y2="39.9214" stroke-width="0.1861" stroke="#119911" stroke-linecap="round"/>
 <path d="M 108.44126700 39.92144000 A 0.4154 0.4154 0 1 0 107.6909 39.5763" stroke-width="0.1861" stroke="#119911" stroke-linecap="round" fill="none"/>
 <line x1="98.3040" y1="41.9840" x2="101.3760" y2="44.0320" stroke-width="0.1280" stroke="#119911" stroke-linecap="round"/>
 <line x1="101.3760" y1="44.0320" x2="100.3520" y2="43.0080" stroke-width="0.1280" stroke="#119911" stroke-linecap="round"/>
 <line x1="101.3760" y1="44.0320" x2="99.8861" y2="43.5026" stroke-width="0.1280" stroke="#119911" stroke-linecap="round"/>
 <line x1="100.3520" y1="41.9840" x2="98.3040" y2="41.9840" stroke-width="0.1280" stroke="#119911" stroke-linecap="round"/>
 <line x1="99.6905" y1="43.7217" x2="98.6665" y2="42.6977" stroke-width="0.1280" stroke="#119911" stroke-linecap="round"/>
 <line x1="97.2800" y1="39.9360" x2="100.3520" y2="41.9840" stroke-width="0.1280" stroke="#119911" stroke-linecap="round"/>
 <line x1="96.6185" y1="41.6737" x2="99.6905" y2="43.7217" stroke-width="0.1280" stroke="#119911" stroke-linecap="round"/>
 <line x1="99.6905" y1="43.7217" x2="98.2006" y2="43.1923" stroke-width="0.1280" stroke="#119911" stroke-linecap="round"/>
 <line x1="95.5945" y1="39.6257" x2="98.6665" y2="41.6737" stroke-width="0.1280" stroke="#119911" stroke-linecap="round"/>
 <line x1="98.6665" y1="41.6737" x2="96.6185" y2="41.6737" stroke-width="0.1280" stroke="#119911" stroke-linecap="round"/>
 <line x1="21.5040" y1="26.6240" x2="11.2640" y2="26.6240" stroke-width="0.1280" stroke="#119911" stroke-linecap="round"/>
 <line x1="14.8480" y1="59.3920" x2="17.9200" y2="59.3920" stroke-width="0.1280" stroke="#119911" stroke-linecap="round"/>
 <line x1="15.8720" y1="60.4160" x2="16.8960" y2="60.4160" stroke-width="0.1280" stroke="#119911" stroke-linecap="round"/>
 <line x1="13.8240" y1="58.3680" x2="18.9440" y2="58.3680" stroke-width="0.1280" stroke="#119911" stroke-linecap="round"/>
 <line x1="16.3840" y1="21.5040" x2="16.3840" y2="26.6240" stroke-width="0.1280" stroke="#119911" stroke-linecap="round"/>
 <line x1="21.5040" y1="21.6019" x2="21.5040" y2="19.8362" stroke-width="0.1861" stroke="#119911" stroke-linecap="round"/>
 <line x1="21.5040" y1="19.8362" x2="22.0233" y2="19.8362" stroke-width="0.1861" stroke="#119911" stroke-linecap="round"/>
 <line x1="22.0579" y1="21.6019" x2="21.5040" y2="21.6019" stroke-width="0.1861" stroke="#119911" stroke-linecap="round"/>
 <line x1="22.4734" y1="21.0826" x2="22.4734" y2="21.2211" stroke-width="0.1861" stroke="#119911" stroke-linecap="round"/>
 <line x1="21.9887" y1="20.6325" x2="21.5040" y2="20.6325" stroke-width="0.1861" stroke="#119911" stroke-linecap="round"/>
 <path d="M 22.47337800 21.11721000 A 0.4847 0.4847 0 0 0 21.9887 20.6325" stroke-width="0.1861" stroke="#119911" stroke-linecap="round" fill="none"/>
 <path d="M 21.98868900 20.63252200 A 0.4154 0.4154 0 0 0 22.4041 20.2171" stroke-width="0.1861" stroke="#119911" stroke-linecap="round" fill="none"/>
 <path d="M 22.05793000 21.60189900 A 0.4154 0.4154 0 0 0 22.4734 21.1865" stroke-width="0.1861" stroke="#119911" stroke-linecap="round" fill="none"/>
 <path d="M 22.40413600 20.21707400 A 0.3808 0.3808 0 0 0 22.0233 19.8362" stroke-width="0.1861" stroke="#119911" stroke-linecap="round" fill="none"/>
 <line x1="22.9407" y1="20.2171" x2="23.3215" y2="19.8362" stroke-width="0.1861" stroke="#119911" stroke-linecap="round"/>
 <line x1="23.3215" y1="19.8362" x2="23.3215" y2="21.6019" stroke-width="0.1861" stroke="#119911" stroke-linecap="round"/>
 <line x1="36.8640" y1="9.2160" x2="40.1408" y2="9.2160" stroke-width="0.1280" stroke="#119911" stroke-linecap="round"/>
 <line x1="40.4480" y1="19.4560" x2="39.4240" y2="19.4560" stroke-width="0.1280" stroke="#119911" stroke-linecap="round"/>
 <line x1="38.9120" y1="17.9200" x2="38.9120" y2="18.9440" stroke-width="0.1280" stroke="#119911" stroke-linecap="round"/>
 <line x1="36.8640" y1="17.4080" x2="38.9120" y2="17.4080" stroke-width="0.1280" stroke="#119911" stroke-linecap="round"/>
 <line x1="45.8752" y1="13.3120" x2="49.1520" y2="13.3120" stroke-width="0.1280" stroke="#119911" stroke-linecap="round"/>
 <line x1="67.5840" y1="13.3120" x2="63.4880" y2="13.3120" stroke-width="0.1280" stroke="#119911" stroke-linecap="round"/>
 <line x1="63.4880" y1="13.3120" x2="63.4880" y2="25.6000" stroke-width="0.1280" stroke="#119911" stroke-linecap="round"/>
 <line x1="63.4880" y1="25.6000" x2="67.5840" y2="25.6000" stroke-width="0.1280" stroke="#119911" stroke-linecap="round"/>
 <line x1="67.5840" y1="25.6000" x2="67.5840" y2="13.3120" stroke-width="0.1280" stroke="#119911" stroke-linecap="round"/>
 <line x1="68.6080" y1="19.1931" x2="68.9888" y2="18.8122" stroke-width="0.1861" stroke="#119911" stroke-linecap="round"/>
 <line x1="68.9888" y1="18.8122" x2="68.9888" y2="20.5779" stroke-width="0.1861" stroke="#119911" stroke-linecap="round"/>
 <line x1="69.6556" y1="20.5779" x2="70.4172" y2="20.5779" stroke-width="0.1861" stroke="#119911" stroke-linecap="round"/>
 <line x1="69.6556" y1="20.5779" x2="70.3926" y2="19.4414" stroke-width="0.1861" stroke="#119911" stroke-linecap="round"/>
 <path d="M 70.39263100 19.44144000 A 0.4154 0.4154 0 1 0 69.6423 19.0963" stroke-width="0.1861" stroke="#119911" stroke-linecap="round" fill="none"/>
 <line x1="71.2255" y1="18.8346" x2="71.1617" y2="18.9057" stroke-width="0.1861" stroke="#119911" stroke-linecap="round"/>
 <line x1="71.4437" y1="20.5555" x2="71.5076" y2="20.4844" stroke-width="0.1861" stroke="#119911" stroke-linecap="round"/>
 <line x1="71.4437" y1="18.8346" x2="71.5076" y2="18.9057" stroke-width="0.1861" stroke="#119911" stroke-linecap="round"/>
 <line x1="71.1617" y1="20.4844" x2="71.2255" y2="20.5555" stroke-width="0.1861" stroke="#119911" stroke-linecap="round"/>
 <line x1="71.7501" y1="19.6778" x2="71.7501" y2="19.7124" stroke-width="0.1861" stroke="#119911" stroke-linecap="round"/>
 <line x1="70.9192" y1="19.6778" x2="70.9192" y2="19.7124" stroke-width="0.1861" stroke="#119911" stroke-linecap="round"/>
 <path d="M 71.50757600 18.90572600 A 1.3502 1.3502 0 0 1 71.7501 19.6778" stroke-width="0.1861" stroke="#119911" stroke-linecap="round" fill="none"/>
 <path d="M 71.16168000 20.48442000 A 1.3502 1.3502 0 0 1 70.9192 19.7124" stroke-width="0.1861" stroke="#119911" stroke-linecap="round" fill="none"/>
 <path d="M 71.50757600 20.48442000 A 1.3502 1.3502 0 0 0 71.7501 19.7124" stroke-width="0.1861" stroke="#119911" stroke-linecap="round" fill="none"/>
 <path d="M 71.22552600 20.55550500 A 0.2770 0.2770 0 0 0 71.4437 20.5555" stroke-width="0.1861" stroke="#119911" stroke-linecap="round" fill="none"/>
 <path d="M 71.16168000 18.90572600 A 1.3502 1.3502 0 0 0 70.9192 19.6778" stroke-width="0.1861" stroke="#119911" stroke-linecap="round" fill="none"/>
 <path d="M 71.44373000 18.83464100 A 0.2770 0.2770 0 0 0 71.2255 18.8346" stroke-width="0.1861" stroke="#119911" stroke-linecap="round" fill="none"/>
 <line x1="68.6080" y1="16.4819" x2="68.6080" y2="14.7162" stroke-width="0.1861" stroke="#119911" stroke-linecap="round"/>
 <line x1="69.1619" y1="15.6856" x2="68.6080" y2="15.6856" stroke-width="0.1861" stroke="#119911" stroke-linecap="round"/>
 <line x1="69.1619" y1="14.7162" x2="68.6080" y2="14.7162" stroke-width="0.1861" stroke="#119911" stroke-linecap="round"/>
 <line x1="69.5774" y1="15.1317" x2="69.5774" y2="15.2702" stroke-width="0.1861" stroke="#119911" stroke-linecap="round"/>
 <line x1="69.5774" y1="16.4819" x2="69.1966" y2="15.6856" stroke-width="0.1861" stroke="#119911" stroke-linecap="round"/>
 <path d="M 69.16193000 14.71624600 A 0.4154 0.4154 0 0 1 69.5774 15.1317" stroke-width="0.1861" stroke="#119911" stroke-linecap="round" fill="none"/>
 <path d="M 69.16193000 15.68562500 A 0.4154 0.4154 0 0 0 69.5774 15.2702" stroke-width="0.1861" stroke="#119911" stroke-linecap="round" fill="none"/>
 <line x1="70.0447" y1="15.0971" x2="70.4256" y2="14.7162" stroke-width="0.1861" stroke="#119911" stroke-linecap="round"/>
 <line x1="70.4256" y1="14.7162" x2="70.4256" y2="16.4819" stroke-width="0.1861" stroke="#119911" stroke-linecap="round"/>
 <line x1="93.1840" y1="19.1931" x2="93.5648" y2="18.8122" stroke-width="0.1861" stroke="#119911" stroke-linecap="round"/>
 <line x1="93.5648" y1="18.8122" x2="93.5648" y2="20.5779" stroke-width="0.1861" stroke="#119911" stroke-linecap="round"/>
 <line x1="94.2316" y1="20.5779" x2="94.9932" y2="20.5779" stroke-width="0.1861" stroke="#119911" stroke-linecap="round"/>
 <line x1="94.2316" y1="20.5779" x2="94.9686" y2="19.4414" stroke-width="0.1861" stroke="#119911" stroke-linecap="round"/>
 <path d="M 94.96863100 19.44144000 A 0.4154 0.4154 0 1 0 94.2183 19.0963" stroke-width="0.1861" stroke="#119911" stroke-linecap="round" fill="none"/>
 <line x1="95.8015" y1="18.8346" x2="95.7377" y2="18.9057" stroke-width="0.1861" stroke="#119911" stroke-linecap="round"/>
 <line x1="96.0197" y1="20.5555" x2="96.0836" y2="20.4844" stroke-width="0.1861" stroke="#119911" stroke-linecap="round"/>
 <line x1="96.0197" y1="18.8346" x2="96.0836" y2="18.9057" stroke-width="0.1861" stroke="#119911" stroke-linecap="round"/>
 <line x1="95.7377" y1="20.4844" x2="95.8015" y2="20.5555" stroke-width="0.1861" stroke="#119911" stroke-linecap="round"/>
 <line x1="96.3261" y1="19.6778" x2="96.3261" y2="19.7124" stroke-width="0.1861" stroke="#119911" stroke-linecap="round"/>
 <line x1="95.4952" y1="19.6778" x2="95.4952" y2="19.7124" stroke-width="0.1861" stroke="#119911" stroke-linecap="round"/>
 <path d="M 96.08357600 18.90572600 A 1.3502 1.3502 0 0 1 96.3261 19.6778" stroke-width="0.1861" stroke="#119911" stroke-linecap="round" fill="none"/>
 <path d="M 95.73768000 20.48442000 A 1.3502 1.3502 0 0 1 95.4952 19.7124" stroke-width="0.1861" stroke="#119911" stroke-linecap="round" fill="none"/>
 <path d="M 96.08357600 20.48442000 A 1.3502 1.3502 0 0 0 96.3261 19.7124" stroke-width="0.1861" stroke="#119911" stroke-linecap="round" fill="none"/>
 <path d="M 95.80152600 20.55550500 A 0.2770 0.2770 0 0 0 96.0197 20.5555" stroke-width="0.1861" stroke="#119911" stroke-linecap="round" fill="none"/>
 <path d="M 95.73768000 18.90572600 A 1.3502 1.3502 0 0 0 95.4952 19.6778" stroke-width="0.1861" stroke="#119911" stroke-linecap="round" fill="none"/>
 <path d="M 96.01973000 18.83464100 A 0.2770 0.2770 0 0 0 95.8015 18.8346" stroke-width="0.1861" stroke="#119911" stroke-linecap="round" fill="none"/>
 <line x1="92.1600" y1="13.3120" x2="88.0640" y2="13.3120" stroke-width="0.1280" stroke="#119911" stroke-linecap="round"/>
 <line x1="88.0640" y1="13.3120" x2="88.0640" y2="25.6000" stroke-width="0.1280" stroke="#119911" stroke-linecap="round"/>
 <line x1="88.0640" y1="25.6000" x2="92.1600" y2="25.6000" stroke-width="0.1280" stroke="#119911" stroke-linecap="round"/>
 <line x1="92.1600" y1="25.6000" x2="92.1600" y2="13.3120" stroke-width="0.1280" stroke="#119911" stroke-linecap="round"/>
 <line x1="93.1840" y1="16.4819" x2="93.1840" y2="14.7162" stroke-width="0.1861" stroke="#119911" stroke-linecap="round"/>
 <line x1="93.7379" y1="15.6856" x2="93.1840" y2="15.6856" stroke-width="0.1861" stroke="#119911" stroke-linecap="round"/>
 <line x1="93.7379" y1="14.7162" x2="93.1840" y2="14.7162" stroke-width="0.1861" stroke="#119911" stroke-linecap="round"/>
 <line x1="94.1534" y1="15.1317" x2="94.1534" y2="15.2702" stroke-width="0.1861" stroke="#119911" stroke-linecap="round"/>
 <line x1="94.1534" y1="16.4819" x2="93.7726" y2="15.6856" stroke-width="0.1861" stroke="#119911" stroke-linecap="round"/>
 <path d="M 93.73793000 14.71624600 A 0.4154 0.4154 0 0 1 94.1534 15.1317" stroke-width="0.1861" stroke="#119911" stroke-linecap="round" fill="none"/>
 <path d="M 93.73793000 15.68562500 A 0.4154 0.4154 0 0 0 94.1534 15.2702" stroke-width="0.1861" stroke="#119911" stroke-linecap="round" fill="none"/>
 <line x1="94.6340" y1="16.4819" x2="95.3957" y2="16.4819" stroke-width="0.1861" stroke="#119911" stroke-linecap="round"/>
 <line x1="94.6340" y1="16.4819" x2="95.3711" y2="15.3454" stroke-width="0.1861" stroke="#119911" stroke-linecap="round"/>
 <path d="M 95.37109600 15.34544000 A 0.4154 0.4154 0 1 0 94.6207 15.0003" stroke-width="0.1861" stroke="#119911" stroke-linecap="round" fill="none"/>
 <path d="M 45.87520000 13.31200000 A 0.4096 0.4096 0 0 0 45.0560 13.3120" stroke-width="0.1280" stroke="#119911" stroke-linecap="round" fill="none"/>
 <path d="M 45.05600000 13.31200000 A 0.4096 0.4096 0 0 0 45.8752 13.3120" stroke-width="0.1280" stroke="#119911" stroke-linecap="round" fill="none"/>
 <line x1="38.9120" y1="5.6320" x2="38.9120" y2="6.6560" stroke-width="0.1280" stroke="#119911" stroke-linecap="round"/>
 <line x1="38.9120" y1="7.6800" x2="38.9120" y2="8.7040" stroke-width="0.1280" stroke="#119911" stroke-linecap="round"/>
 <line x1="38.9120" y1="9.7280" x2="38.9120" y2="10.7520" stroke-width="0.1280" stroke="#119911" stroke-linecap="round"/>
 <line x1="38.9120" y1="11.7760" x2="38.9120" y2="12.8000" stroke-width="0.1280" stroke="#119911" stroke-linecap="round"/>
 <line x1="38.9120" y1="13.8240" x2="38.9120" y2="14.8480" stroke-width="0.1280" stroke="#119911" stroke-linecap="round"/>
 <line x1="38.9120" y1="15.8720" x2="38.9120" y2="16.8960" stroke-width="0.1280" stroke="#119911" stroke-linecap="round"/>
 <line x1="40.1408" y1="9.2160" x2="44.6464" y2="5.9392" stroke-width="0.1280" stroke="#119911" stroke-linecap="round"/>
 <line x1="47.1040" y1="7.6800" x2="47.1040" y2="8.7040" stroke-width="0.1280" stroke="#119911" stroke-linecap="round"/>
 <line x1="47.1040" y1="9.7280" x2="47.1040" y2="10.7520" stroke-width="0.1280" stroke="#119911" stroke-linecap="round"/>
 <line x1="47.1040" y1="11.7760" x2="47.1040" y2="12.8000" stroke-width="0.1280" stroke="#119911" stroke-linecap="round"/>
 <line x1="47.1040" y1="13.8240" x2="47.1040" y2="14.8480" stroke-width="0.1280" stroke="#119911" stroke-linecap="round"/>
 <line x1="47.1040" y1="15.8720" x2="47.1040" y2="16.8960" stroke-width="0.1280" stroke="#119911" stroke-linecap="round"/>
 <path d="M 45.87520000 5.12000000 A 0.4096 0.4096 0 0 0 45.0560 5.1200" stroke-width="0.1280" stroke="#119911" stroke-linecap="round" fill="none"/>
 <path d="M 45.05600000 5.12000000 A 0.4096 0.4096 0 0 0 45.8752 5.1200" stroke-width="0.1280" stroke="#119911" stroke-linecap="round" fill="none"/>
 <line x1="38.9120" y1="3.5840" x2="38.9120" y2="4.6080" stroke-width="0.1280" stroke="#119911" stroke-linecap="round"/>
 <line x1="40.4480" y1="3.0720" x2="39.4240" y2="3.0720" stroke-width="0.1280" stroke="#119911" stroke-linecap="round"/>
 <line x1="42.4960" y1="3.0720" x2="41.4720" y2="3.0720" stroke-width="0.1280" stroke="#119911" stroke-linecap="round"/>
 <line x1="45.8752" y1="5.1200" x2="49.1520" y2="5.1200" stroke-width="0.1280" stroke="#119911" stroke-linecap="round"/>
 <line x1="47.1040" y1="5.6320" x2="47.1040" y2="6.6560" stroke-width="0.1280" stroke="#119911" stroke-linecap="round"/>
 <line x1="47.1040" y1="3.5840" x2="47.1040" y2="4.6080" stroke-width="0.1280" stroke="#119911" stroke-linecap="round"/>
 <line x1="44.5440" y1="3.0720" x2="43.5200" y2="3.0720" stroke-width="0.1280" stroke="#119911" stroke-linecap="round"/>
 <line x1="46.5920" y1="3.0720" x2="45.5680" y2="3.0720" stroke-width="0.1280" stroke="#119911" stroke-linecap="round"/>
 <line x1="42.4960" y1="19.4560" x2="41.4720" y2="19.4560" stroke-width="0.1280" stroke="#119911" stroke-linecap="round"/>
 <line x1="44.5440" y1="19.4560" x2="43.5200" y2="19.4560" stroke-width="0.1280" stroke="#119911" stroke-linecap="round"/>
 <line x1="46.5920" y1="19.4560" x2="45.5680" y2="19.4560" stroke-width="0.1280" stroke="#119911" stroke-linecap="round"/>
 <line x1="47.1040" y1="17.9200" x2="47.1040" y2="18.9440" stroke-width="0.1280" stroke="#119911" stroke-linecap="round"/>
 <line x1="39.4313" y1="2.1459" x2="39.6390" y2="2.1459" stroke-width="0.1861" stroke="#119911" stroke-linecap="round"/>
 <line x1="39.7076" y1="1.4200" x2="39.1855" y2="1.1515" stroke-width="0.1861" stroke="#119911" stroke-linecap="round"/>
 <line x1="39.2928" y1="0.3802" x2="39.4313" y2="0.3802" stroke-width="0.1861" stroke="#119911" stroke-linecap="round"/>
 <line x1="39.9160" y1="1.8689" x2="39.9160" y2="1.7997" stroke-width="0.1861" stroke="#119911" stroke-linecap="round"/>
 <path d="M 39.70756000 1.41998800 A 0.4501 0.4501 0 0 1 39.9160 1.7997" stroke-width="0.1861" stroke="#119911" stroke-linecap="round" fill="none"/>
 <path d="M 39.91599800 1.86893400 A 0.2770 0.2770 0 0 1 39.6390 2.1459" stroke-width="0.1861" stroke="#119911" stroke-linecap="round" fill="none"/>
 <path d="M 39.18547200 1.15150900 A 0.4154 0.4154 0 0 1 38.9120 0.7611" stroke-width="0.1861" stroke="#119911" stroke-linecap="round" fill="none"/>
 <path d="M 39.29282700 0.38024700 A 0.3808 0.3808 0 0 0 38.9120 0.7611" stroke-width="0.1861" stroke="#119911" stroke-linecap="round" fill="none"/>
 <path d="M 39.81292500 0.48274600 A 0.7617 0.7617 0 0 0 39.4313 0.3802" stroke-width="0.1861" stroke="#119911" stroke-linecap="round" fill="none"/>
 <path d="M 38.92975600 1.95744800 A 0.7617 0.7617 0 0 0 39.4313 2.1459" stroke-width="0.1861" stroke="#119911" stroke-linecap="round" fill="none"/>
 <line x1="40.3833" y1="0.3802" x2="40.7642" y2="2.1459" stroke-width="0.1861" stroke="#119911" stroke-linecap="round"/>
 <line x1="40.7642" y1="2.1459" x2="41.1450" y2="0.9688" stroke-width="0.1861" stroke="#119911" stroke-linecap="round"/>
 <line x1="41.9067" y1="0.3802" x2="41.5258" y2="2.1459" stroke-width="0.1861" stroke="#119911" stroke-linecap="round"/>
 <line x1="41.5258" y1="2.1459" x2="41.1450" y2="0.9688" stroke-width="0.1861" stroke="#119911" stroke-linecap="round"/>
 <line x1="42.5601" y1="0.7611" x2="42.9409" y2="0.3802" stroke-width="0.1861" stroke="#119911" stroke-linecap="round"/>
 <line x1="42.9409" y1="0.3802" x2="42.9409" y2="2.1459" stroke-width="0.1861" stroke="#119911" stroke-linecap="round"/>
 <line x1="16.3840" y1="37.8880" x2="16.3840" y2="33.7920" stroke-width="0.2560" stroke="#222222" stroke-linecap="round"/>
 <line x1="17.3101" y1="34.8160" x2="19.0758" y2="34.8160" stroke-width="0.1861" stroke="#222222" stroke-linecap="round"/>
 <line x1="17.3101" y1="35.8200" x2="19.0758" y2="35.8200" stroke-width="0.1861" stroke="#222222" stroke-linecap="round"/>
 <line x1="19.0758" y1="34.8160" x2="17.3101" y2="35.8200" stroke-width="0.1861" stroke="#222222" stroke-linecap="round"/>
 <line x1="16.3840" y1="54.2720" x2="16.3840" y2="58.3680" stroke-width="0.2560" stroke="#222222" stroke-linecap="round"/>
 <line x1="90.1120" y1="50.1760" x2="90.1120" y2="46.0800" stroke-width="0.2560" stroke="#222222" stroke-linecap="round"/>
 <line x1="92.4229" y1="47.1040" x2="92.8038" y2="47.4848" stroke-width="0.1861" stroke="#222222" stroke-linecap="round"/>
 <line x1="92.8038" y1="47.4848" x2="91.0381" y2="47.4848" stroke-width="0.1861" stroke="#222222" stroke-linecap="round"/>
 <line x1="90.1120" y1="33.7920" x2="90.1120" y2="37.8880" stroke-width="0.2560" stroke="#222222" stroke-linecap="round"/>
 <line x1="91.0381" y1="35.8830" x2="91.0381" y2="36.6447" stroke-width="0.1861" stroke="#222222" stroke-linecap="round"/>
 <line x1="91.0381" y1="35.8830" x2="92.1746" y2="36.6201" stroke-width="0.1861" stroke="#222222" stroke-linecap="round"/>
 <path d="M 92.17456000 36.62006900 A 0.4154 0.4154 0 1 0 92.5197 35.8697" stroke-width="0.1861" stroke="#222222" stroke-linecap="round" fill="none"/>
 <line x1="65.5360" y1="50.1760" x2="65.5360" y2="46.0800" stroke-width="0.2560" stroke="#222222" stroke-linecap="round"/>
 <line x1="67.8469" y1="47.1040" x2="68.2278" y2="47.4848" stroke-width="0.1861" stroke="#222222" stroke-linecap="round"/>
 <line x1="68.2278" y1="47.4848" x2="66.4621" y2="47.4848" stroke-width="0.1861" stroke="#222222" stroke-linecap="round"/>
 <line x1="65.5360" y1="33.7920" x2="65.5360" y2="37.8880" stroke-width="0.2560" stroke="#222222" stroke-linecap="round"/>
 <line x1="66.4621" y1="35.8830" x2="66.4621" y2="36.6447" stroke-width="0.1861" stroke="#222222" stroke-linecap="round"/>
 <line x1="66.4621" y1="35.8830" x2="67.5986" y2="36.6201" stroke-width="0.1861" stroke="#222222" stroke-linecap="round"/>
 <path d="M 67.59856000 36.62006900 A 0.4154 0.4154 0 1 0 67.9437 35.8697" stroke-width="0.1861" stroke="#222222" stroke-linecap="round" fill="none"/>
 <line x1="16.3840" y1="17.4080" x2="16.3840" y2="21.5040" stroke-width="0.2560" stroke="#222222" stroke-linecap="round"/>
 <line x1="17.3101" y1="19.3260" x2="19.0758" y2="19.3260" stroke-width="0.1861" stroke="#222222" stroke-linecap="round"/>
 <line x1="18.1064" y1="19.8799" x2="18.1064" y2="19.3260" stroke-width="0.1861" stroke="#222222" stroke-linecap="round"/>
 <line x1="19.0758" y1="19.8799" x2="19.0758" y2="19.3260" stroke-width="0.1861" stroke="#222222" stroke-linecap="round"/>
 <line x1="18.6603" y1="20.2953" x2="18.5218" y2="20.2953" stroke-width="0.1861" stroke="#222222" stroke-linecap="round"/>
 <path d="M 19.07575400 19.87988200 A 0.4154 0.4154 0 0 1 18.6603 20.2953" stroke-width="0.1861" stroke="#222222" stroke-linecap="round" fill="none"/>
 <path d="M 18.10637500 19.87988200 A 0.4154 0.4154 0 0 0 18.5218 20.2953" stroke-width="0.1861" stroke="#222222" stroke-linecap="round" fill="none"/>
 <line x1="36.8640" y1="9.2160" x2="32.7680" y2="9.2160" stroke-width="0.2560" stroke="#222222" stroke-linecap="round"/>
 <line x1="36.8640" y1="17.4080" x2="32.7680" y2="17.4080" stroke-width="0.2560" stroke="#222222" stroke-linecap="round"/>
 <line x1="35.1589" y1="14.7162" x2="34.7781" y2="16.1011" stroke-width="0.1861" stroke="#222222" stroke-linecap="round"/>
 <line x1="34.7781" y1="16.1011" x2="35.7475" y2="16.1011" stroke-width="0.1861" stroke="#222222" stroke-linecap="round"/>
 <line x1="35.4359" y1="15.6856" x2="35.4359" y2="16.4819" stroke-width="0.1861" stroke="#222222" stroke-linecap="round"/>
 <line x1="34.8590" y1="8.2899" x2="35.6207" y2="8.2899" stroke-width="0.1861" stroke="#222222" stroke-linecap="round"/>
 <line x1="34.8590" y1="8.2899" x2="35.5961" y2="7.1534" stroke-width="0.1861" stroke="#222222" stroke-linecap="round"/>
 <path d="M 35.59606900 7.15344000 A 0.4154 0.4154 0 1 0 34.8457 6.8083" stroke-width="0.1861" stroke="#222222" stroke-linecap="round" fill="none"/>
 <line x1="49.1520" y1="13.3120" x2="53.2480" y2="13.3120" stroke-width="0.2560" stroke="#222222" stroke-linecap="round"/>
 <line x1="65.5360" y1="29.6960" x2="65.5360" y2="25.6000" stroke-width="0.2560" stroke="#222222" stroke-linecap="round"/>
 <line x1="66.4621" y1="26.6373" x2="66.4621" y2="27.3990" stroke-width="0.1861" stroke="#222222" stroke-linecap="round"/>
 <line x1="66.4621" y1="26.6373" x2="67.5986" y2="27.3744" stroke-width="0.1861" stroke="#222222" stroke-linecap="round"/>
 <path d="M 67.59856000 27.37437300 A 0.4154 0.4154 0 1 0 67.9437 26.6240" stroke-width="0.1861" stroke="#222222" stroke-linecap="round" fill="none"/>
 <line x1="65.5360" y1="9.2160" x2="65.5360" y2="13.3120" stroke-width="0.2560" stroke="#222222" stroke-linecap="round"/>
 <line x1="67.8469" y1="11.8149" x2="68.2278" y2="12.1957" stroke-width="0.1861" stroke="#222222" stroke-linecap="round"/>
 <line x1="68.2278" y1="12.1957" x2="66.4621" y2="12.1957" stroke-width="0.1861" stroke="#222222" stroke-linecap="round"/>
 <line x1="90.1120" y1="29.6960" x2="90.1120" y2="25.6000" stroke-width="0.2560" stroke="#222222" stroke-linecap="round"/>
 <line x1="91.0381" y1="26.6373" x2="91.0381" y2="27.3990" stroke-width="0.1861" stroke="#222222" stroke-linecap="round"/>
 <line x1="91.0381" y1="26.6373" x2="92.1746" y2="27.3744" stroke-width="0.1861" stroke="#222222" stroke-linecap="round"/>
 <path d="M 92.17456000 27.37437300 A 0.4154 0.4154 0 1 0 92.5197 26.6240" stroke-width="0.1861" stroke="#222222" stroke-linecap="round" fill="none"/>
 <line x1="90.1120" y1="9.2160" x2="90.1120" y2="13.3120" stroke-width="0.2560" stroke="#222222" stroke-linecap="round"/>
 <line x1="92.4229" y1="11.8149" x2="92.8038" y2="12.1957" stroke-width="0.1861" stroke="#222222" stroke-linecap="round"/>
 <line x1="92.8038" y1="12.1957" x2="91.0381" y2="12.1957" stroke-width="0.1861" stroke="#222222" stroke-linecap="round"/>
 <line x1="50.1760" y1="10.6202" x2="50.6261" y2="10.6202" stroke-width="0.1861" stroke="#222222" stroke-linecap="round"/>
 <line x1="50.3491" y1="11.4165" x2="50.6261" y2="11.4165" stroke-width="0.1861" stroke="#222222" stroke-linecap="round"/>
 <line x1="50.9723" y1="11.7973" x2="50.9723" y2="11.9705" stroke-width="0.1861" stroke="#222222" stroke-linecap="round"/>
 <line x1="50.1760" y1="12.3859" x2="50.5568" y2="12.3859" stroke-width="0.1861" stroke="#222222" stroke-linecap="round"/>
 <path d="M 50.97227500 11.97045100 A 0.4154 0.4154 0 0 1 50.5568 12.3859" stroke-width="0.1861" stroke="#222222" stroke-linecap="round" fill="none"/>
 <path d="M 50.59144800 11.41652100 A 0.3808 0.3808 0 0 1 50.9723 11.7973" stroke-width="0.1861" stroke="#222222" stroke-linecap="round" fill="none"/>
 <path d="M 50.52220600 11.41652100 A 0.4501 0.4501 0 0 0 50.9723 10.9665" stroke-width="0.1861" stroke="#222222" stroke-linecap="round" fill="none"/>
 <path d="M 50.97227400 10.96645300 A 0.3462 0.3462 0 0 0 50.6261 10.6202" stroke-width="0.1861" stroke="#222222" stroke-linecap="round" fill="none"/>
 <line x1="49.1520" y1="5.1200" x2="53.2480" y2="5.1200" stroke-width="0.2560" stroke="#222222" stroke-linecap="round"/>
 <line x1="50.1760" y1="2.8091" x2="50.5568" y2="2.4282" stroke-width="0.1861" stroke="#222222" stroke-linecap="round"/>
 <line x1="50.5568" y1="2.4282" x2="50.5568" y2="4.1939" stroke-width="0.1861" stroke="#222222" stroke-linecap="round"/>
</g>
</svg>
