G04 start of page 2 for group 9 layer_idx 9 *
G04 Title: (unknown), bottom_mask *
G04 Creator: pcb-rnd 3.1.5-dev *
G04 CreationDate: 2024-03-25 20:10:40 UTC *
G04 For: STEM4ukraine *
G04 Format: Gerber/RS-274X *
G04 PCB-Dimensions: 362205 393701 *
G04 PCB-Coordinate-Origin: lower left *
%MOIN*%
%FSLAX25Y25*%
%LNBOTTOM_MASK_NONE_9*%
%ADD39C,0.1202*%
%ADD38C,0.0860*%
%ADD37C,0.0001*%
G54D37*G36*
X245763Y327072D02*X305418D01*
Y294976D01*
X245763D01*
Y327072D01*
G37*
G36*
X151275D02*X210930D01*
Y294976D01*
X151275D01*
Y327072D01*
G37*
G36*
X334300Y51606D02*X325700D01*
Y60206D01*
X334300D01*
Y51606D01*
G37*
G54D38*X300000Y55906D03*
G54D37*G36*
X334300Y40188D02*X325700D01*
Y48788D01*
X334300D01*
Y40188D01*
G37*
G36*
X346954Y46166D02*Y42810D01*
X341235D01*
Y46166D01*
X346954D01*
G37*
G36*
X349709Y52465D02*Y47535D01*
X345566D01*
Y52465D01*
X349709D01*
G37*
G36*
X346954Y34355D02*Y30999D01*
X341235D01*
Y34355D01*
X346954D01*
G37*
G36*
Y28843D02*Y25487D01*
X341235D01*
Y28843D01*
X346954D01*
G37*
G36*
X358765Y52465D02*Y47535D01*
X354621D01*
Y52465D01*
X358765D01*
G37*
G36*
X349709Y23725D02*Y18794D01*
X345566D01*
Y23725D01*
X349709D01*
G37*
G36*
X358765D02*Y18794D01*
X354621D01*
Y23725D01*
X358765D01*
G37*
G54D38*X300000Y44488D03*
G54D39*X280512Y44291D02*X282480D01*
X201772D02*X203740D01*
G54D37*G36*
X153243Y98725D02*X177465D01*
Y78440D01*
X153243D01*
Y98725D01*
G37*
G36*
X115842D02*X140064D01*
Y78440D01*
X115842D01*
Y98725D01*
G37*
M02*
