G04 start of page 2 for group 1 layer_idx 6 *
G04 Title: (unknown), top_silk *
G04 Creator: pcb-rnd 3.1.5-dev *
G04 CreationDate: 2024-03-25 20:10:40 UTC *
G04 For: STEM4ukraine *
G04 Format: Gerber/RS-274X *
G04 PCB-Dimensions: 362205 393701 *
G04 PCB-Coordinate-Origin: lower left *
%MOIN*%
%FSLAX25Y25*%
%LNTOP_SILK_NONE_1*%
%ADD25C,0.0180*%
%ADD24C,0.0001*%
G54D24*G36*
X343671Y298435D02*Y297234D01*
X342471D01*
Y298435D01*
X343671D01*
G37*
G36*
X344833Y296112D02*Y294911D01*
X343632D01*
Y296112D01*
X344833D01*
G37*
G36*
X342510Y294951D02*Y293750D01*
X341309D01*
Y294951D01*
X342510D01*
G37*
G36*
Y292628D02*Y291427D01*
X341309D01*
Y292628D01*
X342510D01*
G37*
G36*
X345994Y291467D02*Y290266D01*
X344793D01*
Y291467D01*
X345994D01*
G37*
G36*
X342510Y290305D02*Y289104D01*
X341309D01*
Y290305D01*
X342510D01*
G37*
G36*
X341349Y286821D02*Y285620D01*
X340148D01*
Y286821D01*
X341349D01*
G37*
G36*
X344833D02*Y285620D01*
X343632D01*
Y286821D01*
X344833D01*
G37*
G36*
X343671Y284498D02*Y283297D01*
X342471D01*
Y284498D01*
X343671D01*
G37*
G36*
X344833Y282175D02*Y280974D01*
X343632D01*
Y282175D01*
X344833D01*
G37*
G36*
X342510Y279852D02*Y278651D01*
X341309D01*
Y279852D01*
X342510D01*
G37*
G36*
Y275207D02*Y274006D01*
X341309D01*
Y275207D01*
X342510D01*
G37*
G36*
Y269400D02*Y268199D01*
X341309D01*
Y269400D01*
X342510D01*
G37*
G36*
X334380Y254301D02*Y253100D01*
X333179D01*
Y254301D01*
X334380D01*
G37*
G36*
X339026Y251978D02*Y250777D01*
X337825D01*
Y251978D01*
X339026D01*
G37*
G36*
X337864Y249655D02*Y248455D01*
X336664D01*
Y249655D01*
X337864D01*
G37*
G36*
X334380Y248494D02*Y247293D01*
X333179D01*
Y248494D01*
X334380D01*
G37*
G36*
X336703Y247333D02*Y246132D01*
X335502D01*
Y247333D01*
X336703D01*
G37*
G36*
X334380Y245010D02*Y243809D01*
X333179D01*
Y245010D01*
X334380D01*
G37*
G36*
Y240364D02*Y239163D01*
X333179D01*
Y240364D01*
X334380D01*
G37*
G36*
X329734Y217136D02*Y215935D01*
X328534D01*
Y217136D01*
X329734D01*
G37*
G36*
X328573Y214813D02*Y213612D01*
X327372D01*
Y214813D01*
X328573D01*
G37*
G36*
X336703Y245010D02*Y243809D01*
X335502D01*
Y245010D01*
X336703D01*
G37*
G36*
Y240364D02*Y239163D01*
X335502D01*
Y240364D01*
X336703D01*
G37*
G36*
X335542Y242687D02*Y241486D01*
X334341D01*
Y242687D01*
X335542D01*
G37*
G36*
X343671Y277529D02*Y276329D01*
X342471D01*
Y277529D01*
X343671D01*
G37*
G36*
Y272884D02*Y271683D01*
X342471D01*
Y272884D01*
X343671D01*
G37*
G36*
X357608Y238041D02*Y236840D01*
X356408D01*
Y238041D01*
X357608D01*
G37*
G54D25*X8734Y28507D02*Y11487D01*
X9544Y28507D02*Y11487D01*
X6299Y28507D02*X16024D01*
X18454Y27697D01*
X19269Y26887D01*
X20079Y25267D01*
Y22832D01*
X19269Y21212D01*
X18454Y20402D01*
X16024Y19592D01*
X9544D01*
X16024Y28507D02*X17644Y27697D01*
X18454Y26887D01*
X19269Y25267D01*
Y22832D01*
X18454Y21212D01*
X17644Y20402D01*
X16024Y19592D01*
X6299Y11487D02*X11974D01*
X27704Y22832D02*X32564Y11487D01*
X28514Y22832D02*X32564Y13107D01*
X37424Y22832D02*X32564Y11487D01*
X30944Y8242D01*
X29324Y6622D01*
X27704Y5812D01*
X26889D01*
X26079Y6622D01*
X26889Y7432D01*
X27704Y6622D01*
X26079Y22832D02*X30944D01*
X34184D02*X39049D01*
X54774Y20402D02*X53964Y19592D01*
X54774Y18782D01*
X55584Y19592D01*
Y20402D01*
X53964Y22022D01*
X52344Y22832D01*
X49914D01*
X47484Y22022D01*
X45864Y20402D01*
X45049Y17972D01*
Y16352D01*
X45864Y13922D01*
X47484Y12297D01*
X49914Y11487D01*
X51534D01*
X53964Y12297D01*
X55584Y13922D01*
X49914Y22832D02*X48294Y22022D01*
X46674Y20402D01*
X45864Y17972D01*
Y16352D01*
X46674Y13922D01*
X48294Y12297D01*
X49914Y11487D01*
X71309Y20402D02*X70499Y19592D01*
X71309Y18782D01*
X72119Y19592D01*
Y20402D01*
X70499Y22022D01*
X68879Y22832D01*
X66449D01*
X64019Y22022D01*
X62399Y20402D01*
X61584Y17972D01*
Y16352D01*
X62399Y13922D01*
X64019Y12297D01*
X66449Y11487D01*
X68069D01*
X70499Y12297D01*
X72119Y13922D01*
X66449Y22832D02*X64829Y22022D01*
X63209Y20402D01*
X62399Y17972D01*
Y16352D01*
X63209Y13922D01*
X64829Y12297D01*
X66449Y11487D01*
X80554Y22832D02*Y11487D01*
X81364Y22832D02*Y11487D01*
X78119Y22832D02*X83794D01*
X81364Y17162D02*X82984D01*
X85414Y17972D01*
X86224Y18782D01*
X87844Y22022D01*
X88654Y22832D01*
X89464D01*
X90279Y22022D01*
X89464Y21212D01*
X88654Y22022D01*
X82984Y17162D02*X85414Y16352D01*
X86224Y15542D01*
X87844Y12297D01*
X88654Y11487D01*
X82984Y17162D02*X84604Y16352D01*
X85414Y15542D01*
X87034Y12297D01*
X87844Y11487D01*
X89464D01*
X90279Y12297D01*
X91089Y13922D01*
X78119Y11487D02*X83794D01*
X98709Y21212D02*Y20402D01*
X97899D01*
Y21212D01*
X98709Y22022D01*
X100329Y22832D01*
X103569D01*
X105189Y22022D01*
X105999Y21212D01*
X106809Y19592D01*
Y13922D01*
X107624Y12297D01*
X108434Y11487D01*
X105999Y21212D02*Y13922D01*
X106809Y12297D01*
X108434Y11487D01*
X109244D01*
X105999Y19592D02*X105189Y18782D01*
X100329Y17972D01*
X97899Y17162D01*
X97089Y15542D01*
Y13922D01*
X97899Y12297D01*
X100329Y11487D01*
X102759D01*
X104379Y12297D01*
X105999Y13922D01*
X100329Y17972D02*X98709Y17162D01*
X97899Y15542D01*
Y13922D01*
X98709Y12297D01*
X100329Y11487D01*
X124969Y22832D02*Y11487D01*
X125779Y22832D02*Y11487D01*
X128214Y22832D02*X119299D01*
X116869Y22022D01*
X116054Y20402D01*
Y19592D01*
X116869Y17972D01*
X119299Y17162D01*
X124969D01*
X119299Y22832D02*X117679Y22022D01*
X116869Y20402D01*
Y19592D01*
X117679Y17972D01*
X119299Y17162D01*
X123349D02*X120919Y16352D01*
X120109Y15542D01*
X118489Y12297D01*
X117679Y11487D01*
X123349Y17162D02*X121729Y16352D01*
X120919Y15542D01*
X119299Y12297D01*
X118489Y11487D01*
X116869D01*
X116054Y12297D01*
X115244Y13922D01*
X122539Y11487D02*X128214D01*
X151079Y22832D02*Y19592D01*
X150269Y14732D01*
X149459Y12297D01*
X148644Y11487D01*
X158369Y22832D02*Y11487D01*
X159179Y22832D02*Y11487D01*
X148644Y22832D02*X161614D01*
X147024Y11487D02*X146214Y7432D01*
Y11487D01*
X161614D01*
Y7432D01*
X160804Y11487D01*
X169239Y22832D02*X174099Y11487D01*
X170049Y22832D02*X174099Y13107D01*
X178959Y22832D02*X174099Y11487D01*
X172479Y8242D01*
X170859Y6622D01*
X169239Y5812D01*
X168424D01*
X167614Y6622D01*
X168424Y7432D01*
X169239Y6622D01*
X167614Y22832D02*X172479D01*
X175719D02*X180584D01*
X189019D02*Y11487D01*
X189829Y22832D02*Y11487D01*
X197124Y22832D02*Y11487D01*
X197934Y22832D02*Y11487D01*
X205229Y22832D02*Y11487D01*
X206039Y22832D02*Y11487D01*
X186584Y22832D02*X192264D01*
X194694D02*X200364D01*
X202799D02*X208474D01*
X186584Y11487D02*X208474D01*
X216094Y21212D02*Y20402D01*
X215284D01*
Y21212D01*
X216094Y22022D01*
X217714Y22832D01*
X220954D01*
X222574Y22022D01*
X223384Y21212D01*
X224194Y19592D01*
Y13922D01*
X225009Y12297D01*
X225819Y11487D01*
X223384Y21212D02*Y13922D01*
X224194Y12297D01*
X225819Y11487D01*
X226629D01*
X223384Y19592D02*X222574Y18782D01*
X217714Y17972D01*
X215284Y17162D01*
X214474Y15542D01*
Y13922D01*
X215284Y12297D01*
X217714Y11487D01*
X220144D01*
X221764Y12297D01*
X223384Y13922D01*
X217714Y17972D02*X216094Y17162D01*
X215284Y15542D01*
Y13922D01*
X216094Y12297D01*
X217714Y11487D01*
X247059Y28507D02*Y11487D01*
X247874Y28507D02*Y11487D01*
X257594Y28507D02*Y11487D01*
X258409Y28507D02*Y11487D01*
X244629Y28507D02*X260839D01*
X244629Y11487D02*X250304D01*
X255164D02*X260839D01*
X268464Y22832D02*X273324Y11487D01*
X269274Y22832D02*X273324Y13107D01*
X278184Y22832D02*X273324Y11487D01*
X271704Y8242D01*
X270084Y6622D01*
X268464Y5812D01*
X267649D01*
X266839Y6622D01*
X267649Y7432D01*
X268464Y6622D01*
X266839Y22832D02*X271704D01*
X274944D02*X279809D01*
X290669D02*Y11487D01*
X291479Y22832D02*Y11487D01*
X286619Y22832D02*X285809Y18782D01*
Y22832D01*
X296344D01*
Y18782D01*
X295529Y22832D01*
X288239Y11487D02*X293909D01*
X304779Y22832D02*Y11487D01*
X305589Y22832D02*Y11487D01*
X313689Y22832D02*Y11487D01*
X314499Y22832D02*Y11487D01*
X302344Y22832D02*X308019D01*
X311259D02*X316934D01*
X302344Y11487D02*X308019D01*
X311259D02*X316934D01*
X313689Y22022D02*X305589Y12297D01*
X325369Y22832D02*Y11487D01*
X326179Y22832D02*Y11487D01*
X334279Y22832D02*Y11487D01*
X335089Y22832D02*Y11487D01*
X322934Y22832D02*X328609D01*
X331849D02*X337524D01*
X326179Y17162D02*X334279D01*
X322934Y11487D02*X328609D01*
X331849D02*X337524D01*
X345144Y21212D02*Y20402D01*
X344334D01*
Y21212D01*
X345144Y22022D01*
X346764Y22832D01*
X350004D01*
X351624Y22022D01*
X352434Y21212D01*
X353244Y19592D01*
Y13922D01*
X354059Y12297D01*
X354869Y11487D01*
X352434Y21212D02*Y13922D01*
X353244Y12297D01*
X354869Y11487D01*
X355679D01*
X352434Y19592D02*X351624Y18782D01*
X346764Y17972D01*
X344334Y17162D01*
X343524Y15542D01*
Y13922D01*
X344334Y12297D01*
X346764Y11487D01*
X349194D01*
X350814Y12297D01*
X352434Y13922D01*
X346764Y17972D02*X345144Y17162D01*
X344334Y15542D01*
Y13922D01*
X345144Y12297D01*
X346764Y11487D01*
M02*
